#Comment line ignore any data following # character 
#Hierarchical Translation and Rotation (.htr) file 
[Header]	
#Header keywords are followed by a single value 
FileType HTR		#Single word string
DataType HTRS		#Translation followed by rotation and scale data
FileVersion 1		#integer
NumSegments 84		#integer
NumFrames 2		#integer
DataFrameRate 30		#integer, data frame rate in this file
EulerRotationOrder ZYX
CalibrationUnits mm
RotationUnits Degrees
GlobalAxisofGravity Y
BoneLengthAxis Y
ScaleFactor 1.00
[SegmentNames&Hierarchy]
#CHILD	PARENT
MASTER GLOBAL
root MASTER
chest root
L_mid_tent01 root
R_mid_tent01 root
spine01 root
Bip01_Neck chest
L_humerus chest
R_humerus chest
weapon_bone chest
Bip01_Head Bip01_Neck
eye_left_bone Bip01_Head
eye_right_bone Bip01_Head
L_forearm L_humerus
L_front_hand L_forearm
L_weapon_bone L_forearm
L_front_hand01_01 L_front_hand
L_front_hand02_01 L_front_hand
L_front_hand03_01 L_front_hand
L_front_hand01_02 L_front_hand01_01
L_front_hand02_02 L_front_hand02_01
L_front_hand03_02 L_front_hand03_01
R_forearm R_humerus
R_front_hand R_forearm
R_weapon_bone R_forearm
R_front_hand01_01 R_front_hand
R_front_hand02_01 R_front_hand
R_front_hand03_01 R_front_hand
R_front_hand01_02 R_front_hand01_01
R_front_hand02_02 R_front_hand02_01
R_front_hand03_02 R_front_hand03_01
null_rope01_connect L_mid_tent01
Rope1_Seg01 null_rope01_connect
Rope1_Seg02 Rope1_Seg01
Rope1_Seg03 Rope1_Seg02
Rope1_Seg04 Rope1_Seg03
Rope1_Seg05 Rope1_Seg04
Rope1_Seg06 Rope1_Seg05
Rope1_Seg07 Rope1_Seg06
Rope1_Seg09 Rope1_Seg07
L_mid_hand01 Rope1_Seg09
L_mid_hand02 Rope1_Seg09
L_mid_hand03 Rope1_Seg09
null_rope02_connect R_mid_tent01
Rope2_Seg01 null_rope02_connect
Rope2_Seg02 Rope2_Seg01
Rope2_Seg03 Rope2_Seg02
Rope2_Seg04 Rope2_Seg03
Rope2_Seg05 Rope2_Seg04
Rope2_Seg06 Rope2_Seg05
Rope2_Seg07 Rope2_Seg06
Rope2_Seg09 Rope2_Seg07
R_mid_hand01 Rope2_Seg09
R_mid_hand02 Rope2_Seg09
R_mid_hand03 Rope2_Seg09
spine02 spine01
spine03 spine02
pelvis spine03
null_rope03_connect pelvis
null_rope04_connect pelvis
Rope3_Seg01 null_rope03_connect
Rope3_Seg02 Rope3_Seg01
Rope3_Seg03 Rope3_Seg02
Rope3_Seg04 Rope3_Seg03
Rope3_Seg05 Rope3_Seg04
Rope3_Seg06 Rope3_Seg05
Rope3_Seg07 Rope3_Seg06
Rope3_Seg08 Rope3_Seg07
Rope3_Seg09 Rope3_Seg08
R_rear_hand01 Rope3_Seg09
R_rear_hand02 Rope3_Seg09
R_rear_hand03 Rope3_Seg09
Rope4_Seg01 null_rope04_connect
Rope4_Seg02 Rope4_Seg01
Rope4_Seg03 Rope4_Seg02
Rope4_Seg04 Rope4_Seg03
Rope4_Seg05 Rope4_Seg04
Rope4_Seg06 Rope4_Seg05
Rope4_Seg07 Rope4_Seg06
Rope4_Seg08 Rope4_Seg07
Rope4_Seg09 Rope4_Seg08
L_rear_hand01 Rope4_Seg09
L_rear_hand02 Rope4_Seg09
L_rear_hand03 Rope4_Seg09
[BasePosition]
#SegmentName Tx, Ty, Tz, Rx, Ry, Rz, BoneLength
MASTER 0.000000 0.000000 0.000000 -90.000000 0.000000 0.000000 10.000000 
root 0.000000 0.000000 0.000000 0.000000 0.000000 0.000000 10.000000 
chest 0.000000 0.000000 0.000000 0.000000 0.000000 0.000000 10.000000 
L_mid_tent01 0.000000 0.000000 0.000000 0.000000 0.000000 0.000000 10.000000 
R_mid_tent01 0.000000 0.000000 0.000000 0.000000 0.000000 0.000000 10.000000 
spine01 0.000000 0.000000 0.000000 0.000000 0.000000 0.000000 10.000000 
Bip01_Neck 0.000000 0.000000 0.000000 0.000000 0.000000 0.000000 10.000000 
L_humerus 0.000000 0.000000 0.000000 0.000000 0.000000 0.000000 10.000000 
R_humerus 0.000000 0.000000 0.000000 0.000000 0.000000 0.000000 10.000000 
weapon_bone 0.000000 0.000000 0.000000 0.000000 0.000000 0.000000 10.000000 
Bip01_Head 0.000000 0.000000 0.000000 0.000000 0.000000 0.000000 10.000000 
eye_left_bone 0.000000 0.000000 0.000000 0.000000 0.000000 0.000000 10.000000 
eye_right_bone 0.000000 0.000000 0.000000 0.000000 0.000000 0.000000 10.000000 
L_forearm 0.000000 0.000000 0.000000 0.000000 0.000000 0.000000 10.000000 
L_front_hand 0.000000 0.000000 0.000000 0.000000 0.000000 0.000000 10.000000 
L_weapon_bone 0.000000 0.000000 0.000000 0.000000 0.000000 0.000000 10.000000 
L_front_hand01_01 0.000000 0.000000 0.000000 0.000000 0.000000 0.000000 10.000000 
L_front_hand02_01 0.000000 0.000000 0.000000 0.000000 0.000000 0.000000 10.000000 
L_front_hand03_01 0.000000 0.000000 0.000000 0.000000 0.000000 0.000000 10.000000 
L_front_hand01_02 0.000000 0.000000 0.000000 0.000000 0.000000 0.000000 10.000000 
L_front_hand02_02 0.000000 0.000000 0.000000 0.000000 0.000000 0.000000 10.000000 
L_front_hand03_02 0.000000 0.000000 0.000000 0.000000 0.000000 0.000000 10.000000 
R_forearm 0.000000 0.000000 0.000000 0.000000 0.000000 0.000000 10.000000 
R_front_hand 0.000000 0.000000 0.000000 0.000000 0.000000 0.000000 10.000000 
R_weapon_bone 0.000000 0.000000 0.000000 0.000000 0.000000 0.000000 10.000000 
R_front_hand01_01 0.000000 0.000000 0.000000 0.000000 0.000000 0.000000 10.000000 
R_front_hand02_01 0.000000 0.000000 0.000000 0.000000 0.000000 0.000000 10.000000 
R_front_hand03_01 0.000000 0.000000 0.000000 0.000000 0.000000 0.000000 10.000000 
R_front_hand01_02 0.000000 0.000000 0.000000 0.000000 0.000000 0.000000 10.000000 
R_front_hand02_02 0.000000 0.000000 0.000000 0.000000 0.000000 0.000000 10.000000 
R_front_hand03_02 0.000000 0.000000 0.000000 0.000000 0.000000 0.000000 10.000000 
null_rope01_connect 0.000000 0.000000 0.000000 0.000000 0.000000 0.000000 10.000000 
Rope1_Seg01 0.000000 0.000000 0.000000 0.000000 0.000000 0.000000 10.000000 
Rope1_Seg02 0.000000 0.000000 0.000000 0.000000 0.000000 0.000000 10.000000 
Rope1_Seg03 0.000000 0.000000 0.000000 0.000000 0.000000 0.000000 10.000000 
Rope1_Seg04 0.000000 0.000000 0.000000 0.000000 0.000000 0.000000 10.000000 
Rope1_Seg05 0.000000 0.000000 0.000000 0.000000 0.000000 0.000000 10.000000 
Rope1_Seg06 0.000000 0.000000 0.000000 0.000000 0.000000 0.000000 10.000000 
Rope1_Seg07 0.000000 0.000000 0.000000 0.000000 0.000000 0.000000 10.000000 
Rope1_Seg09 0.000000 0.000000 0.000000 0.000000 0.000000 0.000000 10.000000 
L_mid_hand01 0.000000 0.000000 0.000000 0.000000 0.000000 0.000000 10.000000 
L_mid_hand02 0.000000 0.000000 0.000000 0.000000 0.000000 0.000000 10.000000 
L_mid_hand03 0.000000 0.000000 0.000000 0.000000 0.000000 0.000000 10.000000 
null_rope02_connect 0.000000 0.000000 0.000000 0.000000 0.000000 0.000000 10.000000 
Rope2_Seg01 0.000000 0.000000 0.000000 0.000000 0.000000 0.000000 10.000000 
Rope2_Seg02 0.000000 0.000000 0.000000 0.000000 0.000000 0.000000 10.000000 
Rope2_Seg03 0.000000 0.000000 0.000000 0.000000 0.000000 0.000000 10.000000 
Rope2_Seg04 0.000000 0.000000 0.000000 0.000000 0.000000 0.000000 10.000000 
Rope2_Seg05 0.000000 0.000000 0.000000 0.000000 0.000000 0.000000 10.000000 
Rope2_Seg06 0.000000 0.000000 0.000000 0.000000 0.000000 0.000000 10.000000 
Rope2_Seg07 0.000000 0.000000 0.000000 0.000000 0.000000 0.000000 10.000000 
Rope2_Seg09 0.000000 0.000000 0.000000 0.000000 0.000000 0.000000 10.000000 
R_mid_hand01 0.000000 0.000000 0.000000 0.000000 0.000000 0.000000 10.000000 
R_mid_hand02 0.000000 0.000000 0.000000 0.000000 0.000000 0.000000 10.000000 
R_mid_hand03 0.000000 0.000000 0.000000 0.000000 0.000000 0.000000 10.000000 
spine02 0.000000 0.000000 0.000000 0.000000 0.000000 0.000000 10.000000 
spine03 0.000000 0.000000 0.000000 0.000000 0.000000 0.000000 10.000000 
pelvis 0.000000 0.000000 0.000000 0.000000 0.000000 0.000000 10.000000 
null_rope03_connect 0.000000 0.000000 0.000000 0.000000 0.000000 0.000000 10.000000 
null_rope04_connect 0.000000 0.000000 0.000000 0.000000 0.000000 0.000000 10.000000 
Rope3_Seg01 0.000000 0.000000 0.000000 0.000000 0.000000 0.000000 10.000000 
Rope3_Seg02 0.000000 0.000000 0.000000 0.000000 0.000000 0.000000 10.000000 
Rope3_Seg03 0.000000 0.000000 0.000000 0.000000 0.000000 0.000000 10.000000 
Rope3_Seg04 0.000000 0.000000 0.000000 0.000000 0.000000 0.000000 10.000000 
Rope3_Seg05 0.000000 0.000000 0.000000 0.000000 0.000000 0.000000 10.000000 
Rope3_Seg06 0.000000 0.000000 0.000000 0.000000 0.000000 0.000000 10.000000 
Rope3_Seg07 0.000000 0.000000 0.000000 0.000000 0.000000 0.000000 10.000000 
Rope3_Seg08 0.000000 0.000000 0.000000 0.000000 0.000000 0.000000 10.000000 
Rope3_Seg09 0.000000 0.000000 0.000000 0.000000 0.000000 0.000000 10.000000 
R_rear_hand01 0.000000 0.000000 0.000000 0.000000 0.000000 0.000000 10.000000 
R_rear_hand02 0.000000 0.000000 0.000000 0.000000 0.000000 0.000000 10.000000 
R_rear_hand03 0.000000 0.000000 0.000000 0.000000 0.000000 0.000000 10.000000 
Rope4_Seg01 0.000000 0.000000 0.000000 0.000000 0.000000 0.000000 10.000000 
Rope4_Seg02 0.000000 0.000000 0.000000 0.000000 0.000000 0.000000 10.000000 
Rope4_Seg03 0.000000 0.000000 0.000000 0.000000 0.000000 0.000000 10.000000 
Rope4_Seg04 0.000000 0.000000 0.000000 0.000000 0.000000 0.000000 10.000000 
Rope4_Seg05 0.000000 0.000000 0.000000 0.000000 0.000000 0.000000 10.000000 
Rope4_Seg06 0.000000 0.000000 0.000000 0.000000 0.000000 0.000000 10.000000 
Rope4_Seg07 0.000000 0.000000 0.000000 0.000000 0.000000 0.000000 10.000000 
Rope4_Seg08 0.000000 0.000000 0.000000 0.000000 0.000000 0.000000 10.000000 
Rope4_Seg09 0.000000 0.000000 0.000000 0.000000 0.000000 0.000000 10.000000 
L_rear_hand01 0.000000 0.000000 0.000000 0.000000 0.000000 0.000000 10.000000 
L_rear_hand02 0.000000 0.000000 0.000000 0.000000 0.000000 0.000000 10.000000 
L_rear_hand03 0.000000 0.000000 0.000000 0.000000 0.000000 0.000000 10.000000 
#Beginning of Data. Separated by tabs
#Fr	Tx	Ty	Tz	Rx	Ry	Rz	SF
[MASTER]
23 0.000003 -0.000048 -3452.351074 0.001660 0.001660 0.001660 3452.351074
24 0.000003 -0.000045 -3675.166504 0.001660 0.001660 0.001660 3675.166504
[root]
23 -16.502302 -7.855481 1457.365112 -75.971825 -17.243422 -96.678017 1457.479736
24 -16.502302 -6.249084 1456.445068 -68.926575 -12.464492 -99.233627 1456.552002
[chest]
23 -84.512650 -34.090519 0.000000 2.049285 -2.420576 149.378540 91.129311
24 -84.512650 -34.090519 0.000000 1.482980 -1.028388 148.580017 91.129311
[L_mid_tent01]
23 27.299250 22.178650 -249.918594 2.095417 -2.463855 78.687622 252.381546
24 27.299248 22.178663 -249.918594 1.910069 5.793911 78.854736 252.381546
[R_mid_tent01]
23 23.228794 24.509907 226.238495 165.777695 -0.481465 72.672569 228.744751
24 23.228794 24.509907 226.238495 165.244659 -7.740653 75.472191 228.744751
[spine01]
23 -0.361383 -0.195265 0.000000 0.002062 0.001122 32.879829 0.410763
24 -0.361383 -0.195265 0.000000 0.002062 0.001122 32.879829 0.410763
[Bip01_Neck]
23 165.484543 71.581718 0.000119 176.643677 -1.657967 43.431911 180.302734
24 165.484543 71.581718 0.000119 176.643677 -1.657967 43.431911 180.302734
[L_humerus]
23 -13.983130 -135.272980 -120.471481 147.211365 52.956684 -78.673515 181.680161
24 -13.983130 -135.272980 -120.471481 152.560043 44.522446 -72.766083 181.680161
[R_humerus]
23 -13.983309 -135.273102 125.287651 -174.434647 -7.640055 -92.929085 184.909012
24 -13.983309 -135.273102 125.287651 -175.073441 -7.424826 -91.204422 184.909012
[weapon_bone]
23 235.964890 -300.705902 0.000000 0.000000 -89.951546 -128.212341 382.234833
24 235.964890 -300.705902 0.000000 0.000000 -89.951546 -128.212341 382.234833
[Bip01_Head]
23 213.583878 185.326843 16.794909 31.812307 0.614880 -43.899475 283.277557
24 213.630035 185.198364 18.453913 31.706100 1.114097 -43.897285 283.331573
[eye_left_bone]
23 -24.626970 125.451866 -64.772606 0.000000 -90.000000 -99.840431 143.318359
24 -24.626970 125.451866 -64.772606 0.000000 -90.000000 -99.840431 143.318359
[eye_right_bone]
23 -24.626970 125.451866 64.327362 0.000000 -89.965736 80.156380 143.117676
24 -24.626970 125.451866 64.327362 0.000000 -89.965736 80.156380 143.117676
[L_forearm]
23 322.776093 0.000000 -0.000119 0.000122 -0.002344 -95.954002 322.776093
24 322.776093 0.000000 -0.000119 0.000118 -0.002344 -95.767471 322.776093
[L_front_hand]
23 241.149185 -0.042021 -3.300071 -178.625702 -1.804502 -28.722815 241.171753
24 241.149185 -0.042021 -3.300071 -178.633667 -1.810992 -28.482925 241.171753
[L_weapon_bone]
23 156.183838 0.000000 0.000000 0.000014 0.000007 0.000001 156.183838
24 156.183838 0.000000 0.000000 0.000014 0.000007 0.000001 156.183838
[L_front_hand01_01]
23 86.095154 20.947098 -0.655860 -0.366594 -0.477154 75.385574 88.609184
24 86.095154 20.947098 -0.655860 -0.366594 -0.477154 75.385574 88.609184
[L_front_hand02_01]
23 86.935165 -11.437475 24.513514 154.399796 -59.883835 -61.369587 91.046425
24 86.935165 -11.437475 24.513514 154.399796 -59.883835 -61.369587 91.046425
[L_front_hand03_01]
23 86.637497 -14.123976 -20.424902 -153.913849 58.118130 -62.702866 90.126129
24 86.637497 -14.123976 -20.424902 -153.913849 58.118122 -62.702866 90.126129
[L_front_hand01_02]
23 71.020905 -0.000179 0.000030 0.000334 -0.002323 -106.379684 71.020905
24 71.020905 -0.000179 0.000030 0.000334 -0.002323 -106.379684 71.020905
[L_front_hand02_02]
23 71.020927 -0.000119 0.000060 0.000334 -0.002323 -106.379684 71.020927
24 71.020927 -0.000119 0.000060 0.000334 -0.002323 -106.379684 71.020927
[L_front_hand03_02]
23 71.020905 -0.000060 0.000060 0.000334 -0.002323 -106.379684 71.020905
24 71.020905 -0.000060 0.000060 0.000334 -0.002323 -106.379684 71.020905
[R_forearm]
23 322.776428 -0.000060 0.000030 0.209503 0.012599 -94.345795 322.776428
24 322.776428 -0.000060 0.000030 0.209521 0.012302 -94.183853 322.776428
[R_front_hand]
23 238.847015 -0.006795 2.210259 -2.350922 -10.710909 -27.851097 238.857239
24 238.847015 -0.006795 2.210259 -2.405201 -10.701159 -27.554447 238.857239
[R_weapon_bone]
23 155.664093 0.002503 -0.000030 0.003487 0.001180 -90.988930 155.664078
24 155.664093 0.002503 -0.000030 0.003487 0.001180 -90.988930 155.664078
[R_front_hand01_01]
23 87.624611 14.231146 22.918642 -154.633499 -59.950619 61.746044 91.683487
24 87.624611 14.231146 22.918642 -154.633499 -59.950619 61.746044 91.683487
[R_front_hand02_01]
23 89.356956 14.367283 -19.491137 154.602661 58.302849 63.744389 92.579636
24 89.356956 14.367283 -19.491137 154.602661 58.302849 63.744389 92.579636
[R_front_hand03_01]
23 87.286232 -22.307278 -0.143439 0.162155 -0.423168 -75.767921 90.091743
24 87.286232 -22.307278 -0.143439 0.162155 -0.423168 -75.767921 90.091743
[R_front_hand01_02]
23 71.020905 0.000060 0.000119 0.002323 -0.000334 106.381714 71.020905
24 71.020905 0.000060 0.000119 0.002323 -0.000334 106.381714 71.020905
[R_front_hand02_02]
23 71.020844 -0.000030 -0.000119 0.002323 -0.000334 106.381714 71.020836
24 71.020844 -0.000030 -0.000119 0.002323 -0.000334 106.381714 71.020836
[R_front_hand03_02]
23 71.020905 0.000000 0.000030 0.002323 -0.000334 106.381714 71.020905
24 71.020905 0.000000 0.000030 0.002323 -0.000334 106.381714 71.020905
[null_rope01_connect]
23 328.732483 0.000000 -0.000238 -10.328135 -73.166214 39.619392 328.732483
24 328.732483 0.000000 -0.000238 -27.996851 -71.782066 52.452778 328.732483
[Rope1_Seg01]
23 0.000038 -0.000048 0.000153 -9.619715 38.018894 171.428131 0.000164
24 0.000040 -0.000047 0.000160 -17.142956 49.274155 161.474319 0.000171
[Rope1_Seg02]
23 139.999863 -0.000179 0.000000 -0.477680 7.859809 -3.943304 139.999863
24 139.999863 -0.000179 0.000000 -1.637035 9.856319 -5.284493 139.999863
[Rope1_Seg03]
23 139.999924 0.000060 -0.000060 -2.085261 12.609598 -6.342910 139.999924
24 139.999924 0.000060 -0.000060 -4.495545 14.327565 -7.391769 139.999924
[Rope1_Seg04]
23 139.999924 -0.000060 -0.000119 -8.330780 20.787558 -8.075798 139.999924
24 139.999924 -0.000060 -0.000119 -11.247485 17.487688 -6.189121 139.999924
[Rope1_Seg05]
23 139.999832 0.000119 -0.000060 -16.243723 20.261168 -6.522243 139.999832
24 139.999832 0.000119 -0.000060 -18.063129 15.548869 -4.066315 139.999832
[Rope1_Seg06]
23 139.999954 0.000119 -0.000060 -25.528200 17.477448 -8.156334 139.999954
24 139.999954 0.000119 -0.000060 -51.647625 20.824385 -2.772215 139.999954
[Rope1_Seg07]
23 139.999985 0.000060 0.000000 -68.713158 17.880548 -1.143684 139.999985
24 139.999985 0.000060 0.000000 -45.639751 14.311193 13.906238 139.999985
[Rope1_Seg09]
23 121.602913 0.000119 -0.000089 -89.793175 -1.359789 0.847147 121.602913
24 121.602913 0.000119 -0.000089 -89.793175 -1.359789 0.847147 121.602913
[L_mid_hand01]
23 103.859421 1.038730 8.195221 130.544373 -67.584534 -38.866943 104.187431
24 103.859421 1.038730 8.195221 130.544373 -67.584534 -38.866943 104.187431
[L_mid_hand02]
23 105.572853 -4.139662 -10.864139 -168.923172 43.409309 -73.498886 106.211075
24 105.572853 -4.139662 -10.864139 -168.923172 43.409309 -73.498886 106.211075
[L_mid_hand03]
23 104.641464 17.579376 -3.913581 -6.012627 17.808174 74.893669 106.179977
24 104.641464 17.579376 -3.913581 -6.012627 17.808174 74.893669 106.179977
[null_rope02_connect]
23 328.732849 0.000179 -0.000119 -119.709244 79.112137 23.653662 328.732849
24 328.732849 0.000179 -0.000119 -147.147842 66.659416 0.174995 328.732849
[Rope2_Seg01]
23 0.000019 0.000106 0.000000 86.183434 8.222271 10.182490 0.000108
24 0.000023 0.000106 0.000000 88.410561 3.827432 9.446987 0.000109
[Rope2_Seg02]
23 139.999741 -0.000060 -0.000119 -4.008430 0.857377 -8.285258 139.999756
24 139.999741 -0.000060 -0.000119 -6.355486 0.001374 -11.713564 139.999756
[Rope2_Seg03]
23 140.000107 0.000030 0.000000 -4.883922 2.331442 -13.332072 140.000107
24 140.000107 0.000030 0.000000 -6.424604 3.063928 -17.079355 140.000107
[Rope2_Seg04]
23 139.999802 0.000000 -0.000060 -4.752627 9.750416 -23.329260 139.999802
24 139.999802 0.000000 -0.000060 -3.811707 7.036580 -18.952030 139.999802
[Rope2_Seg05]
23 139.999985 -0.000060 0.000119 1.169786 0.424749 -18.698473 139.999985
24 139.999985 -0.000060 0.000119 -0.288873 -9.041760 -13.131557 139.999985
[Rope2_Seg06]
23 139.999893 -0.000030 -0.000119 3.362002 -16.258102 -14.976512 139.999893
24 139.999893 -0.000030 -0.000119 -1.610345 -15.845520 -14.894416 139.999893
[Rope2_Seg07]
23 139.999893 0.000060 -0.000060 0.418656 -10.165910 -14.738214 139.999893
24 139.999893 0.000060 -0.000060 -3.319874 -8.843956 -12.841309 139.999893
[Rope2_Seg09]
23 121.338966 0.000089 -0.000060 33.793236 -1.359788 -0.847141 121.338966
24 121.338966 0.000089 -0.000060 33.793236 -1.359788 -0.847141 121.338966
[R_mid_hand01]
23 104.680779 11.144459 -10.335981 -16.212063 45.237247 70.462852 105.778534
24 104.680779 11.144459 -10.335981 -16.212063 45.237247 70.462852 105.778534
[R_mid_hand02]
23 104.070427 2.443552 8.231699 49.067368 -67.749771 39.286453 104.424065
24 104.070427 2.443552 8.231699 49.067368 -67.749771 39.286453 104.424065
[R_mid_hand03]
23 106.028137 -11.221827 -5.996406 -177.101105 15.551026 -76.585571 106.788818
24 106.028137 -11.221827 -5.996406 -177.101105 15.551026 -76.585571 106.788818
[spine02]
23 129.756927 0.001550 0.000119 -1.158211 -3.961131 8.695666 129.756927
24 129.756927 0.001550 0.000119 -1.147696 -3.950514 8.561162 129.756927
[spine03]
23 78.613991 0.083122 -4.898977 0.951768 4.296817 3.022158 78.766533
24 78.613991 0.083062 -4.898978 0.959382 4.271205 3.111324 78.766533
[pelvis]
23 169.435242 0.051022 0.000000 0.027711 -0.139512 -13.153099 169.435257
24 169.435242 0.051022 0.000000 0.028610 -0.149382 -12.973890 169.435257
[null_rope03_connect]
23 -1.257226 -2.466202 137.391083 -10.729789 -76.865410 87.394440 137.418976
24 -1.257226 -2.466202 137.391083 -12.027035 -69.438011 84.677437 137.418976
[null_rope04_connect]
23 -1.259640 -2.480268 -137.844437 -10.729789 -76.865410 87.394440 137.872513
24 -1.259640 -2.480268 -137.844437 -12.027035 -69.438011 84.677437 137.872513
[Rope3_Seg01]
23 -0.000014 0.000019 0.000076 8.474231 -27.824173 -56.174232 0.000080
24 -0.000015 0.000020 0.000087 14.631326 -30.499924 -68.491096 0.000090
[Rope3_Seg02]
23 139.999924 -0.000119 0.000060 -1.154695 -7.217984 1.675299 139.999924
24 139.999924 -0.000119 0.000060 -0.182618 -6.181344 4.970960 139.999924
[Rope3_Seg03]
23 139.999924 -0.000119 0.000119 -0.686439 -8.391565 0.389300 139.999924
24 139.999924 -0.000119 0.000119 -0.387461 -6.027961 5.784414 139.999924
[Rope3_Seg04]
23 139.999924 0.000119 0.000000 -0.201987 -13.151828 1.075565 139.999924
24 139.999924 0.000119 0.000000 -3.327373 -18.343018 14.415592 139.999924
[Rope3_Seg05]
23 139.999924 -0.000238 0.000060 -1.913974 -20.549841 16.229368 139.999924
24 139.999924 -0.000238 0.000060 -3.271830 -21.301641 12.990443 139.999924
[Rope3_Seg06]
23 139.999893 -0.000119 -0.000060 0.142167 -7.191087 5.892290 139.999893
24 139.999893 -0.000119 -0.000060 0.098341 -5.956401 3.473641 139.999893
[Rope3_Seg07]
23 139.999771 0.000060 -0.000119 0.428627 -3.585525 2.645624 139.999771
24 139.999771 0.000060 -0.000119 0.398248 -3.220566 1.910247 139.999771
[Rope3_Seg08]
23 139.999985 -0.000060 0.000000 0.505597 -1.968573 1.476952 139.999985
24 139.999985 -0.000060 0.000000 0.494378 -1.783602 1.077223 139.999985
[Rope3_Seg09]
23 90.185997 -0.000179 -0.000060 89.793228 -1.359877 -0.847183 90.185997
24 90.185997 -0.000179 -0.000060 89.793228 -1.359877 -0.847183 90.185997
[R_rear_hand01]
23 103.366196 -6.073594 -10.757982 -177.714203 24.565960 -73.910950 104.101845
24 103.366196 -6.073594 -10.757982 -177.714203 24.565960 -73.910950 104.101845
[R_rear_hand02]
23 100.509819 12.039542 -7.992327 -12.874829 36.868488 72.167213 101.543350
24 100.509819 12.039542 -7.992327 -12.874829 36.868488 72.167213 101.543350
[R_rear_hand03]
23 101.539970 5.215704 5.435467 71.484581 -71.816628 21.513813 101.819031
24 101.539970 5.215704 5.435467 71.484581 -71.816628 21.513813 101.819031
[Rope4_Seg01]
23 0.000000 0.000000 0.000000 -92.871864 -12.162045 -126.146683 0.000000
24 0.000000 0.000000 0.000000 -93.394279 -6.546642 -131.253296 0.000000
[Rope4_Seg02]
23 139.999985 0.000060 0.000119 -0.186872 12.737866 8.533257 139.999985
24 139.999985 0.000060 0.000119 -2.098014 10.418974 9.861611 139.999985
[Rope4_Seg03]
23 139.999924 0.000000 -0.000238 -0.134547 13.980733 7.879107 139.999924
24 139.999924 0.000000 -0.000238 -4.445607 10.309273 9.985962 139.999924
[Rope4_Seg04]
23 139.999985 0.000000 0.000119 1.574594 11.119564 4.509345 139.999985
24 139.999985 0.000000 0.000119 -5.667664 7.281071 7.237792 139.999985
[Rope4_Seg05]
23 139.999802 -0.000060 -0.000119 -52.821163 13.752954 19.626640 139.999802
24 139.999802 -0.000060 -0.000119 -49.980637 9.394633 21.044411 139.999802
[Rope4_Seg06]
23 139.999924 0.000000 0.000060 -63.704895 -10.714130 24.171165 139.999924
24 139.999924 0.000000 0.000060 -50.611595 -11.624774 21.348993 139.999924
[Rope4_Seg07]
23 139.999802 0.000000 0.000000 -7.781713 -11.205042 1.468493 139.999802
24 139.999802 0.000000 0.000000 -8.465518 -10.341444 2.536872 139.999802
[Rope4_Seg08]
23 139.999924 0.000000 0.000119 -3.935357 -5.721636 -0.009697 139.999924
24 139.999924 0.000000 0.000119 -4.347062 -5.469224 0.526514 139.999924
[Rope4_Seg09]
23 90.185791 0.000060 0.000060 -135.617828 2.228885 0.850567 90.185791
24 90.185791 0.000060 0.000060 -135.617828 2.228885 0.850567 90.185791
[L_rear_hand01]
23 101.696655 -8.392275 -7.654577 -12.874829 -36.868488 107.832764 102.329041
24 101.696655 -8.392275 -7.654577 -12.874829 -36.868488 107.832764 102.329041
[L_rear_hand02]
23 102.726799 -1.568258 5.773216 71.484581 71.816628 158.486160 102.900848
24 102.726799 -1.568258 5.773216 71.484581 71.816628 158.486160 102.900848
[L_rear_hand03]
23 104.552910 9.721220 -10.420293 -177.714203 -24.565960 -106.089035 105.519653
24 104.552910 9.721220 -10.420293 -177.714203 -24.565960 -106.089035 105.519653
